<?xml version="1.0" encoding="UTF-8" standalone="no"?>
<svg
   width="256"
   height="256"
   fill="none"
   viewBox="0 0 256 256"
   version="1.1"
   id="svg5"
   xmlns="http://www.w3.org/2000/svg"
   xmlns:svg="http://www.w3.org/2000/svg">
  <rect
     width="256"
     height="256"
     fill="#f4f2ed"
     rx="60"
     id="rect1"
     x="0"
     y="0" />
  <path
     style="color:#000000;font-style:normal;font-variant:normal;font-weight:normal;font-stretch:normal;font-size:medium;line-height:normal;font-family:sans-serif;text-indent:0;text-align:start;text-decoration:none;text-decoration-line:none;text-decoration-style:solid;text-decoration-color:#000000;letter-spacing:normal;word-spacing:normal;text-transform:none;writing-mode:lr-tb;direction:ltr;baseline-shift:baseline;text-anchor:start;white-space:normal;clip-rule:nonzero;display:inline;overflow:visible;visibility:visible;isolation:auto;mix-blend-mode:normal;color-interpolation:sRGB;color-interpolation-filters:linearRGB;solid-color:#000000;solid-opacity:1;fill:#000000;fill-opacity:1;fill-rule:nonzero;stroke:none;stroke-width:4.28572;stroke-linecap:butt;stroke-linejoin:miter;stroke-miterlimit:4;stroke-dasharray:none;stroke-dashoffset:0;stroke-opacity:1;color-rendering:auto;image-rendering:auto;shape-rendering:auto;text-rendering:auto;enable-background:accumulate"
     d="M 128.00115,32 C 75.05211,32 32.000009,75.05031 32,127.99998 c 9e-6,14.41673 3.210819,28.08807 8.924709,40.36794 l 7.226412,-13.605 c -2.80932,-8.40779 -4.352882,-17.39877 -4.352901,-26.76294 1.9e-5,-46.57336 37.63011,-84.2016 84.20293,-84.2016 24.62021,0 46.73486,10.52002 62.11813,27.31367 h -41.09561 l -31.33905,58.79596 31.42431,59.4458 h 36.5814 c -15.06042,14.16384 -35.337,22.84782 -57.68918,22.84782 -20.67232,0 -39.57218,-7.4274 -54.21192,-19.74614 H 56.909939 C 74.48389,211.82153 99.84146,224 128.00115,224 180.95021,224 224,180.94965 224,128 224,75.05031 180.95021,32.000019 128.00115,32.000019 Z M 99.43885,83.35977 47.754791,180.65712 H 131.16731 L 104.32868,129.88497 129.12567,83.35978 H 99.43886 Z m 69.74089,21.66797 v 24.36178 l 16.31932,-12.18088 16.31705,-12.18088 v 24.36178 24.36179 l -16.31705,-12.1809 -16.31932,-12.18089 v 24.36179 l -16.31703,-12.1809 -16.31935,-12.18089 16.31935,-12.1809 16.31703,-12.18088 z"
     id="circle4218" />
  <defs
     id="defs5" />
</svg>
